/* XPM */
static char *e2157bd0ca974fbc9df6647c949d6f00Cz7O64mwVhnS8Rsi[] = {
/* columns rows colors chars-per-pixel */
"76 4 2 1 ",
"0  c black",
"1  c #FFFFFF",
/* pixels */
"1111111111111111111111111111111111111111111111111111111111111111111111111111",
"1000000000000000000000000000000000000000000000000000000000000000000000000001",
"1000000000000000000000000000000000000000000000000000000000000000000000000001",
"1111111111111111111111111111111111111111111111111111111111111111111111111111"
};