/* XPM */
static char *bebfd6c277ae4a8498f4e0ffef741274[] = {
/* columns rows colors chars-per-pixel */
"63 62 244 2 ",
"   c #5D3932",
".  c #643E35",
"X  c #60392F",
"o  c #6B473C",
"O  c #774C3E",
"+  c #59555D",
"@  c #6E4843",
"#  c #764D45",
"$  c #7B534B",
"%  c #795246",
"&  c #7B5C59",
"*  c #6B5859",
"=  c #7F645B",
"-  c #775E64",
";  c #6E5C68",
":  c #566676",
">  c #69626C",
",  c #786366",
"<  c #636677",
"1  c #786877",
"2  c #6E717B",
"3  c #505C6C",
"4  c #8C5B4D",
"5  c #855748",
"6  c #925C4D",
"7  c #845A53",
"8  c #8D5E52",
"9  c #8B5E5B",
"0  c #835B58",
"q  c #935E52",
"w  c #915F5A",
"e  c #8D6154",
"r  c #86635C",
"t  c #8C635B",
"y  c #886857",
"u  c #946354",
"i  c #9A6D56",
"p  c #93645B",
"a  c #9B665B",
"s  c #956B5C",
"d  c #9C6B5C",
"f  c #986656",
"g  c #8B725D",
"h  c #9B725D",
"j  c #977059",
"k  c #8F604E",
"l  c #A16D5D",
"z  c #A4725E",
"x  c #855F64",
"c  c #846364",
"v  c #8A6363",
"b  c #886868",
"n  c #946C63",
"m  c #9C6C62",
"M  c #986B69",
"N  c #9B7364",
"B  c #9B736A",
"V  c #9C7A6C",
"C  c #977567",
"Z  c #8B6B74",
"A  c #8B6B7B",
"S  c #866877",
"D  c #976E76",
"F  c #987777",
"G  c #88766B",
"H  c #A26E63",
"J  c #A26E6A",
"K  c #A47264",
"L  c #A97465",
"P  c #A4746A",
"I  c #A9756B",
"U  c #A47A6D",
"Y  c #AA7A6C",
"T  c #A67866",
"R  c #A47C73",
"E  c #AB7D73",
"W  c #A77A79",
"Q  c #B17E72",
"!  c #9A817A",
"~  c #AB8375",
"^  c #AC847B",
"/  c #A68678",
"(  c #B28375",
")  c #B3847B",
"_  c #B48B7B",
"`  c #B98C7C",
"'  c #BA8677",
"]  c #BB917E",
"[  c #A78774",
"{  c #C18E7C",
"}  c #597A9B",
"|  c #576F8E",
" . c #796B87",
".. c #68758B",
"X. c #787489",
"o. c #776E94",
"O. c #6A7798",
"+. c #797599",
"@. c #69698D",
"#. c #5A79A9",
"$. c #5B7DB5",
"%. c #497EAC",
"&. c #6979A7",
"*. c #757AA5",
"=. c #667CB4",
"-. c #636EA3",
";. c #866C85",
":. c #83718C",
">. c #88728A",
",. c #957886",
"<. c #877796",
"1. c #907B95",
"2. c #817BA1",
"3. c #A37A86",
"4. c #3D85BC",
"5. c #7B8998",
"6. c #67839B",
"7. c #4989B9",
"8. c #5785B9",
"9. c #5689AF",
"0. c #6587A7",
"q. c #7895AB",
"w. c #6283B3",
"e. c #6A99B9",
"r. c #7698B5",
"t. c #768BAD",
"y. c #75A0BB",
"u. c #378CC8",
"i. c #2A8ED3",
"p. c #398ED7",
"a. c #2892DB",
"s. c #3494DD",
"d. c #3B94DC",
"f. c #3997DA",
"g. c #2F8DCC",
"h. c #1E96E5",
"j. c #2798E3",
"k. c #369BE1",
"l. c #2EA1E5",
"z. c #498AC8",
"x. c #5687C5",
"c. c #579BC7",
"v. c #458DD2",
"b. c #4697D8",
"n. c #5697D4",
"m. c #5092CF",
"M. c #6999CA",
"N. c #799AC8",
"B. c #6595CF",
"V. c #4BA5D7",
"C. c #57A8D9",
"Z. c #56A2CA",
"A. c #6BA8CA",
"S. c #76A4C6",
"D. c #66ACD4",
"F. c #6DB4D9",
"G. c #51ADE7",
"H. c #6BBAE4",
"J. c #6BBCF0",
"K. c #6BC2E9",
"L. c #8A848A",
"P. c #988588",
"I. c #8C8594",
"U. c #848996",
"Y. c #988896",
"T. c #979398",
"R. c #86929C",
"E. c #A88985",
"W. c #B48D83",
"Q. c #BA8D82",
"!. c #B68B87",
"~. c #AC9285",
"^. c #AA928C",
"/. c #B59184",
"(. c #BC9283",
"). c #BB9C8B",
"_. c #B8958A",
"`. c #A28D93",
"'. c #A89597",
"]. c #B99895",
"[. c #BCA596",
"{. c #8695A8",
"}. c #9695A4",
"|. c #8B9AB7",
" X c #8F8FAB",
".X c #91A3B3",
"XX c #A2AEB9",
"oX c #A397A1",
"OX c #C29484",
"+X c #C49C8C",
"@X c #C6968B",
"#X c #C49C91",
"$X c #C8A698",
"%X c #D3A89A",
"&X c #C9AA97",
"*X c #CAADA2",
"=X c #D9ACA4",
"-X c #CAB5A6",
";X c #D3B2A5",
":X c #DCBAAB",
">X c #D8B5A7",
",X c #D8BCB2",
"<X c #E3B9AC",
"1X c #E4B9AF",
"2X c #D9C6B7",
"3X c #DDC1AF",
"4X c #E4C2B4",
"5X c #E4C5B9",
"6X c #EDCABC",
"7X c #E8C7BA",
"8X c #F1C9BD",
"9X c #E7C6B4",
"0X c #879AC5",
"qX c #9099C3",
"wX c #8DB2CB",
"eX c #A5B5C6",
"rX c #ABC5D8",
"tX c #89D8F7",
"yX c #8FD0EC",
"uX c #9DE9FF",
"iX c #A5EAFE",
"pX c #B0E2F8",
"aX c #ABD4E9",
"sX c #DFD0C2",
"dX c #ECCCC1",
"fX c #E7CEC2",
"gX c #F2CDC1",
"hX c #ECD3C3",
"jX c #EAD7C9",
"kX c #FBDCCB",
"lX c #F5D7C8",
"zX c #F5DED1",
"xX c #FDDED1",
"cX c #ECDED1",
"vX c #FCE2CE",
"bX c #EEE1D1",
"nX c #F5E3D4",
"mX c #FDE4D5",
"MX c #FCE6DA",
"NX c #FDEBDC",
"BX c #F9E8D8",
"VX c #FDEDE2",
"CX c #FFF1E4",
"ZX c #FFF3E9",
/* pixels */
"G.G.G.G.G.G.J.J.J.J.J.J.H.H.H.H.F.D.A.M.y.wXeXrXeXXX.XT.T.I.I.I.I.I.Y.Y.Y.Y.Y.Y.Y.Y.I.1.I.I.I.U.U.U.U.5.5.5.5.5.{.{.r.e.e.c.c.",
"V.V.V.V.V.V.C.C.C.C.C.C.D.D.D.A.A.S.M.e.q.{..XXXXX.X}.T.T.T.Y.Y.Y.Y.Y.Y.Y.Y.Y.Y.Y.Y.Y.Y.Y.I.I.I.U.U.U.5.U.U.U.R.{.{.r.r.e.e.c.",
"C.C.V.V.V.V.V.Z.Z.Z.c.c.A.A.A.e.r.r.r.t.5.5.R.T.T.T.T.T.'.'.'.'.`.`.`.`.`.`.`.`.P.P.Y.Y.Y.Y.Y.L.L.L.L.L.L.L.I.I.}. X{.{.r.e.e.",
"K.K.K.H.H.H.F.F.D.D.A.A.S.S.y.r.q.q.{.5.5.L.L.L.Y.P.`.^.^.^.^.^.^.^.^.^.^.^.^.E.E.E.E.E.P.P.P.P.P.P.P.L.! P.P.P.T.}.}.{.q.r.e.",
"tXtXtXtXtXtXtXyXyXyXyXwX|.q.q.R.U.I.I.L.L.P.P.P.^.~.^.~.~./.^.^./././.W.W.W.W.W.E.^ E.E.E.E.E.E.W W F F F ! E.E.^.'.oX}.{.{.q.",
"uXuXuXuXiXiXiXiXiXpXaXeX.XR.U.I.L.P.P.P.! / / W././.(./.W././._.W././././.(.(.(.E E R R R R R R R E R R R R / ^ !.^.'.oX}.{.{.",
"uXuXuXuXuXiXiXiXpXpXrXeX}.I.1.,.F F W R R ~ ~ _ ` ] OX] (.] (.(.(.(.(.(.(.(.OXOX_ ( ~ E U P B N I I Y Y U U E E !._.].'.'.T.R.",
"tXtXyXyXyXyXyXyXaXrXeX.XY.P.,.,.R R R U T T Y ( ' { OXOXOXQ.` (.(.(.(.OX(.OX+X+X+X+X_.Q.) U N m H I I I I I Y E Q._.].].'.T.T.",
"F.H.H.H.F.F.wXwXwXwX.X}.Y.,.,.D U K K l K L I Y ' ' { { OX] ` ` @XOX` ( (.%X<X<X<X5X9X5X%XE p m H J I I I I I U Q !.].].'.'.T.",
"C.C.C.D.D.A.S.wX0X|.}.Y.Y.3.W P P K l l l L L L Y Q ( ' ` Q.OX(.(.Q.) ~ +X:X8X6X6XgXgXlX5X_.n s J H J I I I I I E W !.].].'.'.",
"b.b.m.c.c.M.A.S.|.|.}.Y.`.3.W P H l l i l l l z z L Y ( _ ` ` Q.W.^ U U _.:XgXlX5X5X5XdX7X$XV p m J J P I U U I P W W !.].'.'.",
"f.f.v.m.m.c.M.N.|.|.}.`.E.W P m l d d i i i l l K L Y Y E ( ( ~ ) E B C / $X,X5X-X*X$X;X,X$X/ n n m N P P P U U J P R !.].].'.",
"f.f.b.v.n.B.N.0X|.}.}.`.E.R B d h d d i i i i i H K T L Y Y Y U E R B n B W.&X2X:X;X*X>X7X:X/.N m m N B P P U U P J P W.].].].",
"k.f.f.b.n.B.N.0X|. XY.P.F V N h j j i i i i i i d l K K L Y Y U P Y U n n / $X5XlXdX4X6XlX6X].U m m B B V P U U P J J W.].].].",
"l.l.k.b.n.B.N.0X|. XY.P.F V N h j i i i d d l l l l H K L L Y T T Y Y N n V $X3XhX7X;X;X5X:X_.U m N N B V U U I P m J Q !._.].",
"l.l.k.b.n.B.N.0X X}.Y.,.F V N h j i i i d d l l H K K K L L L L T Y Y N p C _.;X*X$X^ / _.#X_ N N N N V U U U I P m m Q !.!._.",
"l.l.f.b.n.B.N.qX X1.,.F F V N N i z i i l d a d K Y I L I L K Y I Y U N s [ ).)._ V g t C C N C N N N N T T K K m a m J E ) _.",
"l.k.f.b.n.M.N.qX X1.,.F F B m d i h h d K l a H I ' ' Y I I T I I I I N N _ +X).[ C y y g h h h N N N N T K K H H a a m M R ^ ",
"k.k.f.b.n.M.0XqX X1.;.D F B m d i h i d K d a d I OXOXE I Y I I Y Y P n U +X;X$XV C g g g s s h N N N N K K l l H a p w 9 n B ",
"k.k.b.b.n.M.0XqX X:.S Z F B N m i i i d z d p a E %X%X) I Y Y U Y E P s U &X:X&X[ V C N h s s h N N N N K l l d a a p 8 7 7 t ",
"k.f.b.n.B.M.N. X+. .1 Z Z B N N i i i f h f p N Q.=X%X_ I E E E E E E N R %X5X:X/.[ N N N s f d m N N N K l d d a a p 9 7 $ & ",
"k.f.b.n.B.B.t.*.@.1 , b b n n d i i i f d p d E %X1X=XQ.Y ( ( E E ~ E P ~ %X8X7X#X_ N N N f f a d m m K H l l d a a p t r 0 & ",
"k.f.b.n.n.x.=.-.@.1 S Z b v s s i i i f s s B (.1XgX>XQ.~ ) ( ( ) ^ E R W.>XlXlX>X).~ U T f u f d d m H K H l H d a p t t r r ",
"k.f.b.n.n.8.#.| @. .S Z b v s d f i i i f f R #XlXlX<X(.^ ) ) ) _ E U E (.<XkXkX6X%X_._ ~ a 6 u a d m H K K H H m p p t t v b ",
"s.d.b.n.m.8.#.-.o.o.;.A D B n s u f i d d T (.>XxXlX1X_.^ W.Q.~ ) ^ R ~ $XgXmXxXlX5X$X+X+XY q p d H K H H L L H J m s t t b b ",
"s.d.b.b.m.x.$.-.+.+.>.,.F B m d a f f d T _ %X6XmXxX5X#XW.W.W.^ ^ / R W.;XlXmXmXmXdX:X>X<X(.d p d H H H H L L H J m s t t b b ",
"k.k.k.b.n.x.w.=.*.<.<.,.F F B m d u u K _ $X9XmXMXmXdX%X/.W.W.^ ~ R / ).4XxXMXMXmXlX9X6X8X%XT u d H H H H L K H H n p t t r b ",
"j.k.f.b.m.m.x.=.*.2.1.1.,.F B m f q f ( %X4XlXmXmXmXgX;X_./.W.W./ R ~.&XdXmXNXNXkXgX7X8X8X=X~ p m K H H l L K H H n p t t t b ",
"j.k.k.d.v.m.x.=.*.*.<.1.,.F B n u u Y +X1X8XlXkXmXxXdX;X)././.W.^ / _.-XzXNXMXnXjX4X:X4X1X=X(.P K T K H H K K H m d p t t r v ",
"j.j.k.d.v.v.x.=.=.*.<.1.,.F B n u d ' %X1X4X3X3X7X7X2X*X)./.W.^ / ~.[.2XBXMXzX5X-X$X$X$X+X+X(.Y N K T H H K K H m d p t t r v ",
"j.j.j.s.b.v.x.x.=.*.<.1.,.F B n f L ` %X$X)._.).$X*X-X*X$X].W./ ~.].-XhXBXBX2X&X~./ / [ V R ~ T f m K K K L K H m a p t t r r ",
"h.j.j.s.d.v.x.x.=.*.2.1.,.F M n d T ` OX_ V N V / ~.[.*X*X$X)./ ~.[.2XcXNXBX2X~.G g C g e s V s u a H H K L K H d a p t t r t ",
"h.j.j.s.v.m.x.8.#.&.+.<.,.F M m l I ( ( I s s C C V ~.*X,X*X].~.].*X2XbXNXNX2X/ = g C y y V [ s 4 u m K I K J H m m p t t t t ",
"j.j.k.s.v.z.x.$.-.&.+.<.,.F M H f l K Y Y m e y g C /.>X5X>X$X[.*X2XjXnXCXCX5X~.y g g y g [ _ T u a H P P K J m m m p e e e t ",
"j.j.k.d.v.z.8.$.&.O.+.<.,.F J H q 6 i Q _ ~ s e y V [.2XjXfX2X,X2XjXnXNXZXZXjX[.G g g g [ ).$X] f m P P K H H m a a u 8 8 e e ",
"j.j.s.d.v.x.$.=.&.+.+.>.,.F J J q u T OX%X+X~ C C ~.-XlXMXnXjXjXBXBXVXCXCXZXnX2X~./ / _ ).>X:X+Xm K P P H H H m a a q q 8 8 e ",
"j.j.s.p.z.8.$.&.&.+.<.>.,.D B J a l ' %X9X:X&X).).*X7XBXVXNXMXBXCXVXZXZXVXZXNXjX-X&X*X:X5X8X1X+XK I I P H H l a f f q q 4 4 8 ",
"j.k.s.v.z.$.#.&.O.o.:.>.,.D B J d T OX1X8X6X4X3X2XhXnXNXCXCXVXVXVXVXZXZXVXZXZXnXhX5XhXkXkXgX>X(.N P P P H l l a f q q 6 4 8 e ",
"j.s.d.v.x.$.-.&.o.o.:.;.D D D J K L OX9XkXlXlXlXzXmXNXNXNXNXCXCXVXVXZXZXVXZXZXBXmXlXmXMXkX5X#XE m J P K H d a a q 6 q q 8 e u ",
"s.s.v.z.8.$.&.O.o.o.:.;.D D D P K T OX9XkXkXvXmXMXNXNXNXBXNXVXVXVXVXZXZXVXVXCXNXMXzXmXmXgX>XW.N n m K H H d a a 6 6 6 u u p t ",
"k.s.v.z.$.#.O.o.o.:.;.A A M B R K T ` =XgXkXvXvXMXMXNXNXNXNXVXCXVXVXVXVXVXVXVXBXnXzXmXxXdX$X~ N B P K m a f f 6 6 q u e e s n ",
"k.d.v.z.$.-.O.o.o.:.;.A Z b M P P T ( %X6XkXvXvXmXBXMXNXBXNXNXVXVXZXZXVXVXVXVXNXnXzXzXlX5X#X~ P P U I H d i f 6 4 q u e r v n ",
"k.p.v.x.$.&.O.o.o.;.;.A A b n B I K Y +X4XlXkXvXmXBXBXBXNXNXNXVXVXZXZXVXNXNXNXBXnXzXzXhX;X/.U P U E I H d a q 6 6 q t r r b b ",
"s.p.v.x.$.&.+.o.:.;.A A Z b v M K K T (.>X8XkXkXmXmXMXMXNXVXCXCXVXZXZXVXVXVXNXBXBXzXjX4X$X/ B B ) ) I d u u q q q u t r = b G ",
"s.p.v.x.w.*.+.:.:.;.A A Z b v n m d K _ %X6XkXkXmXmXMXMXVXNXNXBXVXCXCXNXNXVXNXMXBXjX2X&X/.~ ~ _ +XOXE p 4 4 q q q t r & , , S ",
"p.p.v.x.w.*.+.:.:.;.A A Z b v v s a d ~ $X9XlXvXmXmXmXBXBXnXcXjXjXcXbXbXnXBXBXBXBXhX>X[._._.+X$X%X@XY u 4 4 6 q w t c - , 1 S ",
"p.p.z.8.w.*.+.:.;.A S Z Z b c t u f a T OX<XlXvXmXmXmXBXnXjX2X,X2X2X2XsXjXnXBXnXmXjX5X>X;X%X$X+XQ.) K u 4 4 q q p v c - , 1 X.",
"p.p.z.8.w.*.+.:.;.S S Z Z b c t e f f h ` >XlXmXMXMXMXnXzXfX,X*X-X-X2X2XjXnXNXNXMXvXkXlX8X4X+X~ P m a 8 4 6 q q p v c - > 2 X.",
"p.p.z.7.w.&.+.X. .;.S Z Z Z b r t 8 k i Y +X4XmXMXVXVXNXBXcXsX2X2XsXjXbXNXMXMXMXMXMXMXmXlX;X~ e 7 7 4 4 6 q f a w v , ; > ..+.",
"p.p.z.x.8.&.+.X.:.;.A A S Z b c t 8 4 6 i ( %XgXMXVXZXZXZXVXnXbXnXnXBXNXVXVXNXMXNXMXmXlX:X/.n $ $ 5 5 5 6 6 f p 9 c , > < ..6.",
"p.p.v.x.w.&.+.+.:.;.;.;.S A b v 9 8 4 5 5 f ] ;XlXzXVXZXZXZXZXCXZXZXZXZXZXZXNXMXmXzX7X&XW.s 5 O % % 5 5 6 q u p 0 - ; > ..O.0.",
"p.p.v.x.w.&.*.+.<.<.>.;.A S Z v 9 9 4 5 O 5 d _ *X,XjXBXVXCXNXNXCXZXZXZXVXNXBXzX7X-X_.V y $ % O % 5 5 4 6 q u t & - > < O.6.0.",
"s.p.v.x.8.w.*.*.<.<.<.>.;.A S x v 9 8 4 5 5 5 e V ^.*XsXzXMXMXMXMXBXMXNXMXnXjX7X*XW.y # o O # 5 5 5 4 e u p p v , > < ..6.0.9.",
"s.p.p.z.8.w.0.*.*.+.<.<.:.;.A S v 9 9 8 4 5 O # $ = F ].,XlXmXxXzXzXnXnXzXjX7X3X$XV o X . o % 5 5 4 e u p t r , , > < O.0.9.9.",
"a.a.p.z.x.8.w.&.&.*.+.+.:.:.;.S S x 9 e 4 5 O O o o @ G ].5XlXlXlXlXjXlXhXdX5X4X$XC o   . o % 5 4 4 e u t r & - > < | 0.w.8.7.",
"a.a.i.p.z.7.8.w.w.&.*.*.+.o.X.;.S b x 0 7 % # # @ .   $ / ;X6XgXdXdXdXdXdXdX6X5X$XV o X . @ $ 7 4 8 e e r & * * < | } w.8.7.7.",
"j.a.a.g.u.z.7.8.8.8.w.&.&.O.X. .S S c 0 0 7 5 % @ .   % ^ :X8X8X6X6X6X6XdXdXdX6X%X^ $ . . @ $ 7 8 8 e r & * + + 3 | } 9.7.4.u.",
"h.j.a.i.u.u.z.x.8.8.8.w.&.O.O.X. .S b x 0 0 7 $ $ o   $ W.<XgX8X6X6X6X6XgXgXgXdX=X!.n $ # $ $ 7 8 8 t r & * + 3 : | 9.7.7.u.u.",
"h.h.a.a.g.g.u.z.z.7.7.8.9.#.O...X.1 S b c 0 7 5 $ @ . $ ^ <X8X8X8X8X8X8X8X8X8X7X=X_.R n 9 0 7 0 t t r = - > 3 : | } 7.7.u.u.g.",
"h.h.a.a.i.g.g.u.u.z.7.7.9.#.} O.X. .1 S c 0 0 7 $ # @ 7 W =X1X<X<X<X=X>X=X=X=X%X_.W.W R B p 9 9 t t r , , > < | } 9.7.4.u.g.i.",
"h.h.j.a.a.i.g.g.u.u.4.7.7.%.} O... .1 S c 0 0 0 v n M M W @X%X@X@X@X@X@XOXOXQ.W.) ) W W P M 9 9 v v c , 1 2 ..6.9.7.7.u.g.i.i.",
"h.h.j.a.a.i.i.g.g.u.4.4.%.%.} } .. .1 S c & 0 9 W !.!.W.W.(.Q.) ' Q ) ) ) ) ) Q ) ) ) ) W M p 9 v v c , 1 X.6.0.9.7.4.u.g.i.i."
};
